<svg xmlns="http://www.w3.org/2000/svg" viewBox="0 0 653 375"><defs><style>.cls-1,.cls-8{fill:#a9ea9c;}.cls-1,.cls-12,.cls-2{opacity:0.15;}.cls-13,.cls-2{fill:#32caf8;}.cls-11,.cls-3{fill:#2bc3f7;}.cls-4{fill:#9fe791;}.cls-5{fill:#fff;}.cls-6{fill:#2898b2;opacity:0.1;}.cls-10,.cls-7{fill:#426572;}.cls-9{fill:#91cd86;}.cls-10{font-size:35.74px;font-family:Dosis-ExtraBold, Dosis;font-weight:700;}.cls-11{opacity:0.2;}</style></defs><title>Asset 54</title><g id="Layer_2" data-name="Layer 2"><g id="Layer_1-2" data-name="Layer 1"><rect class="cls-1" y="97.5" width="499" height="149" rx="74.5" ry="74.5"/><rect class="cls-2" x="146" y="61.5" width="507" height="149" rx="74.5" ry="74.5"/><circle class="cls-3" cx="86.5" cy="238" r="7.5"/><circle class="cls-3" cx="575.5" cy="119" r="7.5"/><circle class="cls-4" cx="160.5" cy="339" r="7.5"/><circle class="cls-4" cx="475.5" cy="25" r="7.5"/><rect class="cls-5" x="203.3" y="4.5" width="249.4" height="365" rx="12" ry="12"/><path class="cls-6" d="M455.7,308.57V357.5a12,12,0,0,1-12,12H218.3a12,12,0,0,1-12-12V330.08c8.46,4.67,16.47,10.78,25.15,15.09,24.33,12.09,53.17,9.72,79.92,5C360.79,341.55,408.59,326.07,455.7,308.57Z"/><path class="cls-6" d="M455.7,21.5v14a12,12,0,0,0-12-12H218.3a12,12,0,0,0-12,12v-14a12,12,0,0,1,12-12H443.7A12,12,0,0,1,455.7,21.5Z"/><path class="cls-7" d="M443.2,375H217.8a17,17,0,0,1-17-17V17a17,17,0,0,1,17-17H443.2a17,17,0,0,1,17,17V77.5h-10V17a7,7,0,0,0-7-7H217.8a7,7,0,0,0-7,7V358a7,7,0,0,0,7,7H443.2a7,7,0,0,0,7-7V119.07h10V358A17,17,0,0,1,443.2,375Z"/><rect class="cls-7" x="208" y="43.5" width="245" height="9"/><rect class="cls-7" x="208" y="322.5" width="245" height="9"/><rect class="cls-6" x="200.22" y="140.5" width="89.78" height="107.85" rx="12" ry="12"/><path class="cls-8" d="M248.73,189.93H184.66a15.55,15.55,0,0,1-15.53-15.53V87A15.55,15.55,0,0,1,184.66,71.5h64.07A15.55,15.55,0,0,1,264.26,87V174.4A15.55,15.55,0,0,1,248.73,189.93Zm-60.19-19.42h56.3V90.92h-56.3Z"/><path class="cls-9" d="M264.36,119.07v59.22a15.55,15.55,0,0,1-15.53,15.53H184.76a15.55,15.55,0,0,1-15.53-15.53V119.07h19.42V174.4h56.3V119.07Z"/><path class="cls-7" d="M248.73,196.36H184.66a19.55,19.55,0,0,1-19.53-19.53V89.46a19.55,19.55,0,0,1,19.53-19.53h64.07a19.55,19.55,0,0,1,19.53,19.53v87.37A19.55,19.55,0,0,1,248.73,196.36ZM184.66,77.93a11.55,11.55,0,0,0-11.53,11.53v87.37a11.55,11.55,0,0,0,11.53,11.53h64.07a11.55,11.55,0,0,0,11.53-11.53V89.46a11.55,11.55,0,0,0-11.53-11.53Zm64.19,99h-64.3V89.34h64.3Zm-56.3-8h48.3V97.34h-48.3Z"/><rect class="cls-8" x="156.22" y="129.89" width="119.98" height="107.46" rx="12" ry="12"/><path class="cls-9" d="M277.17,143.24V224.3A13.24,13.24,0,0,1,264,237.5h-38.2a7.62,7.62,0,0,1-7.62-7.62V137.66a7.62,7.62,0,0,1,7.62-7.62H264A13.24,13.24,0,0,1,277.17,143.24Z"/><path class="cls-7" d="M264.2,240.3h-96a16,16,0,0,1-16-16V140.85a16,16,0,0,1,16-16h96a16,16,0,0,1,16,16V224.3A16,16,0,0,1,264.2,240.3Zm-96-107.46a8,8,0,0,0-8,8V224.3a8,8,0,0,0,8,8h96a8,8,0,0,0,8-8V140.85a8,8,0,0,0-8-8Z"/><ellipse class="cls-5" cx="177.96" cy="144.11" rx="7.6" ry="2.55"/><ellipse class="cls-5" cx="210.7" cy="144.11" rx="18.86" ry="2.55"/><rect class="cls-3" x="318" y="77.5" width="118" height="99" rx="20.75" ry="20.75"/><path class="cls-3" d="M231,298H365.76c5.79,0,5.8-9,0-9H231c-5.79,0-5.8,9,0,9Z"/><path class="cls-11" d="M231,270H365.76c5.79,0,5.8-9,0-9H231c-5.79,0-5.8,9,0,9Z"/><ellipse class="cls-6" cx="440.5" cy="258" rx="52.5" ry="51.5"/><circle class="cls-8" cx="453.5" cy="249" r="51.5"/><path class="cls-9" d="M502.6,246a51.5,51.5,0,0,1-103,0,53.63,53.63,0,0,1,.4-6.5,51.51,51.51,0,0,0,102.2,0A53.65,53.65,0,0,1,502.6,246Z"/><path class="cls-7" d="M453.5,303.5A55.5,55.5,0,1,1,509,248,55.56,55.56,0,0,1,453.5,303.5Zm0-103A47.5,47.5,0,1,0,501,248,47.55,47.55,0,0,0,453.5,200.5Z"/><polygon class="cls-7" points="448.6 283.7 424.48 260.86 432.73 252.15 446.61 265.3 474.64 224.12 484.56 230.88 448.6 283.7"/><g class="cls-12"><path class="cls-13" d="M507.35,319.22,493.1,331c-3,2.47,1.29,6.69,4.24,4.24l14.25-11.8c3-2.47-1.29-6.69-4.24-4.24Z"/><path class="cls-13" d="M510.37,332.24,498.57,318c-2.47-3-6.69,1.29-4.24,4.24l11.8,14.25c2.47,3,6.69-1.29,4.24-4.24Z"/></g></g></g></svg>