<?xml version="1.0" standalone="no"?>
<!DOCTYPE svg PUBLIC "-//W3C//DTD SVG 20010904//EN"
 "http://www.w3.org/TR/2001/REC-SVG-20010904/DTD/svg10.dtd">
<svg version="1.0" xmlns="http://www.w3.org/2000/svg"
 width="629.000000pt" height="628.000000pt" viewBox="0 0 629.000000 628.000000"
 preserveAspectRatio="xMidYMid meet">
<metadata>
Created by potrace 1.15, written by Peter Selinger 2001-2017
</metadata>
<g transform="translate(0.000000,628.000000) scale(0.100000,-0.100000)"
fill="#000000" stroke="none">
<path d="M0 3140 l0 -3140 3145 0 3145 0 0 3140 0 3140 -3145 0 -3145 0 0
-3140z m3305 1778 c21 -34 38 -67 38 -75 0 -7 3 -13 7 -13 13 0 61 -100 54
-112 -4 -6 -3 -8 3 -5 13 8 56 -89 47 -106 -4 -7 -4 -9 1 -5 11 10 30 -29 69
-142 33 -93 69 -237 65 -256 -1 -5 1 -16 5 -25 8 -17 3 -255 -6 -301 -16 -81
-43 -166 -51 -161 -6 4 -7 1 -2 -6 9 -16 -115 -272 -128 -264 -6 3 -7 2 -4 -4
3 -5 -5 -36 -18 -69 -41 -100 -27 -167 48 -228 69 -55 178 -34 281 54 75 65
75 64 74 38 -1 -40 -36 -126 -79 -193 -37 -59 -152 -177 -168 -172 -3 1 -17
-8 -30 -20 -13 -12 -37 -25 -52 -28 -16 -4 -29 -10 -29 -15 0 -4 -20 -14 -44
-22 -42 -14 -44 -14 -33 4 8 11 19 16 32 12 14 -4 16 -3 7 4 -11 7 -9 20 7 68
11 33 23 84 26 114 7 52 6 54 -9 33 -44 -59 -140 -81 -210 -48 -44 21 -91 72
-105 115 -18 52 -25 253 -12 340 19 121 22 168 11 175 -5 3 -7 0 -4 -8 3 -8 0
-18 -5 -22 -6 -3 -9 -11 -6 -16 8 -12 -20 -51 -29 -42 -4 4 -4 0 0 -10 3 -10
1 -17 -5 -17 -6 0 -11 -5 -11 -10 0 -6 -23 -44 -50 -85 -28 -41 -50 -78 -50
-82 0 -5 -7 -30 -16 -57 -17 -51 -34 -255 -23 -278 4 -7 15 -32 24 -55 10 -24
33 -59 51 -80 18 -20 30 -41 27 -46 -3 -6 -2 -8 3 -5 5 3 25 -5 44 -18 46 -32
18 -31 -63 1 -72 29 -164 105 -152 125 5 9 4 11 -3 6 -7 -4 -12 -1 -12 7 0 8
-7 20 -14 27 -18 14 -44 89 -55 161 -12 71 2 207 29 299 25 85 98 240 112 240
5 0 7 4 4 9 -3 5 5 20 18 34 13 14 22 27 21 29 -6 5 137 183 145 181 4 -1 7 3
7 10 0 7 11 30 24 52 13 22 40 75 60 117 20 43 38 76 40 74 2 -3 5 5 5 17 1
12 11 54 22 94 38 127 52 237 51 402 0 86 -6 193 -13 239 -6 45 -11 82 -10 82
0 0 18 -28 39 -62z m-350 -763 c-15 -151 -44 -230 -194 -535 -106 -214 -131
-283 -131 -364 0 -59 18 -151 41 -214 30 -84 8 -54 -59 80 -139 275 -132 402
31 617 134 176 235 352 288 505 l14 38 8 -33 c4 -19 5 -61 2 -94z m793 -218
c79 -219 58 -394 -61 -504 -40 -37 -133 -93 -154 -93 -4 0 13 21 38 48 118
123 143 201 143 450 0 100 1 182 2 182 1 0 16 -37 32 -83z m-247 -1712 c93
-33 147 -125 136 -233 -10 -95 -82 -174 -171 -187 -47 -7 -130 10 -121 25 3 6
0 8 -7 5 -20 -7 -54 27 -83 80 -61 116 -6 268 111 310 51 18 82 18 135 0z
m502 -1 c10 -4 17 -17 17 -34 0 -28 -1 -28 -37 -18 -53 15 -138 5 -164 -18
-51 -46 -66 -141 -34 -221 21 -52 59 -73 130 -73 l56 0 -3 48 c-3 43 -5 47
-30 50 -22 3 -28 9 -28 28 0 24 2 25 63 22 l62 -3 3 -55 c5 -77 -5 -118 -31
-132 -12 -7 -56 -12 -97 -12 -59 -1 -84 4 -118 22 -30 16 -42 28 -38 38 3 8 2
12 -4 9 -12 -7 -41 37 -48 73 -34 175 66 302 229 287 31 -2 63 -7 72 -11z
m707 5 c48 -10 50 -12 50 -45 0 -39 3 -38 -43 -19 -38 16 -124 20 -143 7 -18
-12 -26 -50 -15 -71 6 -11 43 -31 83 -47 43 -16 87 -41 107 -61 31 -31 33 -38
28 -79 -5 -45 -41 -99 -58 -88 -5 3 -9 1 -9 -5 0 -17 -79 -23 -150 -11 l-69
12 1 34 c1 19 2 34 3 34 2 0 22 -7 45 -15 23 -8 64 -15 91 -15 40 0 51 4 64
24 11 17 13 30 6 48 -12 31 -27 43 -76 58 -100 31 -135 67 -135 138 1 47 25
79 75 97 49 17 79 18 145 4z m-3109 -69 c1 -38 2 -76 3 -82 1 -9 31 -14 104
-16 l102 -3 0 86 0 85 35 0 35 0 0 -210 0 -210 -35 0 -35 0 0 95 0 96 -102 -3
-103 -3 -2 -90 -1 -90 -29 0 -28 0 -3 208 -2 207 30 0 30 0 1 -70z m602 -75
c27 -77 59 -168 73 -203 13 -34 24 -64 24 -66 0 -1 -14 -3 -32 -2 -29 1 -33 5
-47 51 l-16 50 -84 0 -84 0 -17 -50 c-15 -45 -20 -50 -50 -53 -28 -3 -32 -1
-25 15 16 41 98 272 112 318 24 79 30 87 66 83 32 -3 33 -5 80 -143z m282 93
c17 -29 39 -70 49 -91 28 -55 44 -65 52 -33 3 14 11 23 17 19 5 -3 7 -1 4 5
-9 14 3 43 14 36 5 -3 8 -2 7 3 -2 5 8 32 21 61 21 44 29 52 52 52 30 0 32 -5
44 -105 3 -27 13 -95 20 -150 8 -55 15 -115 15 -132 0 -30 -3 -33 -30 -33 -34
0 -33 -4 -50 150 -7 58 -14 111 -16 118 -5 18 -21 15 -28 -5 -4 -10 -26 -51
-48 -91 l-42 -72 -35 62 c-20 35 -42 75 -50 91 -16 31 -31 35 -31 10 -1 -10
-9 -72 -18 -138 l-17 -120 -33 -3 c-17 -2 -32 0 -32 5 0 4 12 99 27 211 l28
202 25 0 c20 0 32 -11 55 -52z m584 46 c17 -4 45 -20 61 -37 26 -26 30 -38 30
-84 0 -46 -4 -56 -35 -87 l-34 -35 25 -45 c14 -26 22 -51 18 -58 -4 -7 -3 -10
1 -5 8 7 45 -39 45 -56 0 -8 -67 -4 -74 4 -2 2 -20 37 -40 77 l-36 72 -45 0
-45 0 0 -80 0 -80 -35 0 -35 0 0 210 0 210 84 0 c46 0 98 -3 115 -6z m1263
-104 c43 -125 94 -268 104 -293 6 -16 2 -18 -27 -15 -32 3 -35 7 -49 56 l-15
53 -84 -3 -84 -3 -16 -50 c-15 -46 -19 -50 -50 -53 -29 -3 -33 -1 -26 15 22
56 115 319 115 326 0 4 7 24 15 43 13 31 18 35 47 32 32 -3 34 -5 70 -108z
m-2149 -584 c69 37 119 -68 62 -131 -25 -26 -35 -28 -77 -10 -15 6 -18 1 -18
-34 0 -23 -4 -41 -10 -41 -6 0 -9 47 -9 117 1 92 4 114 13 101 10 -14 15 -14
39 -2z m1724 -1 c53 35 103 -21 83 -94 -12 -44 -49 -68 -80 -51 -28 15 -30 13
-30 -30 0 -22 -4 -40 -10 -40 -6 0 -10 46 -10 118 1 87 3 112 11 99 10 -17 12
-17 36 -2z m696 3 c49 -25 59 -69 30 -118 -20 -34 -54 -45 -86 -29 -55 30 -63
85 -18 130 33 32 42 34 74 17z"/>
<path d="M3353 2146 c-40 -34 -57 -85 -50 -148 11 -93 49 -128 138 -128 44 0
55 4 84 33 56 56 59 164 6 227 -24 30 -34 34 -87 38 -54 4 -63 1 -91 -22z"/>
<path d="M2945 2181 c-3 -2 -5 -40 -5 -83 l0 -78 55 0 c43 0 58 5 75 22 25 27
28 99 4 119 -16 13 -120 30 -129 20z"/>
</g>
</svg>
